<?xml version="1.0" encoding="utf-8"?>
<!-- Generator: Adobe Illustrator 20.0.0, SVG Export Plug-In . SVG Version: 6.00 Build 0)  -->
<svg version="1.1" id="Layer_6" xmlns="http://www.w3.org/2000/svg" xmlns:xlink="http://www.w3.org/1999/xlink" x="0px" y="0px"
	 viewBox="0 0 546 85.8" style="enable-background:new 0 0 546 85.8;" xml:space="preserve">
<style type="text/css">
	.st0{fill:#231F20;}
	.st1{fill:#6CAB44;}
</style>
<g>
	<g>
		<path class="st0" d="M113.3,28.8h10.3v17c0,8.6-6.1,13.3-13,13.4v-5.2c5.4-0.5,7.5-3.8,7.5-8.6V34h-4.8V28.8z"/>
		<path class="st0" d="M132.2,28.8h5.5v16.5c0,5.5,3.5,8.7,7.7,8.7c4.3,0,7.7-3.3,7.7-8.7V28.8h5.5v17.6c0,6.9-5.3,12.8-13.2,12.8
			c-8,0-13.2-5.9-13.2-12.8V28.8z"/>
		<path class="st0" d="M172.9,40.3v18.3h-5.5V28.2L186.6,47V28.8h5.5v30.4L172.9,40.3z"/>
		<path class="st0" d="M201.3,28.8h5.5v29.8h-5.5V28.8z"/>
		<path class="st0" d="M229.9,28.2c8.9,0,16,6.8,16,15.5c0,8.7-7.1,15.5-16,15.5c-8.9,0-16-6.8-16-15.5
			C214,34.9,221,28.2,229.9,28.2z M229.9,53.9c5.4,0,10.2-4.5,10.2-10.3c0-5.8-4.8-10.3-10.2-10.3c-5.4,0-10.2,4.5-10.2,10.3
			C219.7,49.4,224.6,53.9,229.9,53.9z"/>
		<path class="st0" d="M253.6,49.2h-3.6v-5.2h3.6V28.8h14.2c6.6,0,10.7,4.4,10.7,10.2c0,4.3-3,7.7-7,9l7.4,10.6h-6.9l-6.2-9.4h-6.7
			v9.4h-5.5V49.2z M259.1,43.9h8.2c3.9,0,5.6-2.3,5.6-5c0-2.7-1.8-5-5.6-5h-8.2V43.9z"/>
		<path class="st0" d="M315.1,28.2c4.7,0,9.4,1.9,12.7,6.1l-4.6,3.4c-1.9-2.8-4.8-4.3-8.2-4.3c-5.4,0-10.2,4.5-10.2,10.3
			c0,5.8,4.8,10.3,10.2,10.3c4.9,0,8.9-3,10.1-8.1h-10.1v-5.2h16v3.9c0,4.9-4.4,14.6-16,14.6c-8.9,0-16-6.8-16-15.5
			C299.1,34.9,306.2,28.2,315.1,28.2z"/>
		<path class="st0" d="M352.1,28.2c8.9,0,16,6.8,16,15.5c0,8.7-7.1,15.5-16,15.5c-8.9,0-16-6.8-16-15.5
			C336.1,34.9,343.2,28.2,352.1,28.2z M352.1,53.9c5.4,0,10.2-4.5,10.2-10.3c0-5.8-4.8-10.3-10.2-10.3c-5.4,0-10.2,4.5-10.2,10.3
			C341.9,49.4,346.8,53.9,352.1,53.9z"/>
		<path class="st0" d="M375.3,28.8h5.5v24.6h11.7v-7.1h5.5v12.3h-22.7V28.8z"/>
		<path class="st0" d="M406.2,45.9h-3.6v-5.2h3.6V28.8h22.9V34h-17.4v6.7h12.1v5.2h-12.1v12.7h-5.5V45.9z"/>
		<path class="st0" d="M450,45.9h-3.6v-5.2h3.6V28.8h5.5v11.9h13.6V28.8h5.5v29.8h-5.5V45.9h-13.6v12.7H450V45.9z"/>
		<path class="st0" d="M483.5,28.8h5.5v16.5c0,5.5,3.5,8.7,7.7,8.7c4.3,0,7.7-3.3,7.7-8.7V28.8h5.5v17.6c0,6.9-5.3,12.8-13.2,12.8
			c-8,0-13.2-5.9-13.2-12.8V28.8z"/>
		<path class="st0" d="M519.8,45.9h-3.6v-5.2h3.6V28.8h15.9c4.6,0,8.6,2.7,8.6,8c0,2.7-1.4,4.9-3.7,5.9c3.1,1,5.3,3.5,5.3,7.3
			c0,5.3-3.9,8.6-9.2,8.6h-17V45.9z M525.3,40.7h9.8c2.4,0,3.7-1.6,3.7-3.4c0-1.8-1.3-3.3-3.7-3.3h-9.8V40.7z M525.3,53.3h10.9
			c2.5,0,4.3-1.6,4.3-3.7c0-2.1-1.8-3.7-4.3-3.7h-10.9V53.3z"/>
	</g>
	<path class="st1" d="M44.2,0C19.6,0,0,18.8,0,42.9C0,67,19.6,85.8,44.2,85.8c24.7,0,44.2-18.8,44.2-42.9C88.4,18.8,68.9,0,44.2,0z
		 M10.1,42.9L25.9,23c1.2-1.6,3.1-2.5,5.2-2.5h10L24.6,41.3c-0.8,1-2.1,1.7-3.4,1.7H10.1z M24.5,61.4H13.5L43.9,23
		c1.2-1.6,3.1-2.5,5.2-2.5h10L28,59.7C27.1,60.8,25.9,61.4,24.5,61.4z M50.3,67.8c-6.5,0.3-12.5-1.9-17.2-5.7
		c-0.7-0.6-0.8-1.6-0.3-2.3c4.8-6.2,25.3-32.1,29.9-37.9c0.5-0.6,1.5-0.8,2.1-0.3c6.3,4.8,10.3,12.5,10.1,21.1
		C74.7,56.2,63.8,67.3,50.3,67.8z"/>
</g>
</svg>
